<mxfile host="app.diagrams.net" modified="2023-09-11T10:53:17.546Z" agent="Mozilla/5.0 (Windows NT 10.0; Win64; x64) AppleWebKit/537.36 (KHTML, like Gecko) Chrome/116.0.0.0 Safari/537.36" version="21.7.4" etag="C84A_scJcYZ6vbmheL4g" type="github">
  <diagram name="第 1 页" id="TAGrQ_l5rmRDrZhXWano">
    <mxGraphModel>
      <root>
        <mxCell id="0" />
        <mxCell id="1" parent="0" />
      </root>
    </mxGraphModel>
  </diagram>
</mxfile>
